<?xml version="1.0" standalone="no"?>
<!DOCTYPE svg PUBLIC "-//W3C//DTD SVG 20010904//EN"
 "http://www.w3.org/TR/2001/REC-SVG-20010904/DTD/svg10.dtd">
<svg version="1.0" xmlns="http://www.w3.org/2000/svg"
 width="400.000000pt" height="400.000000pt" viewBox="0 0 400.000000 400.000000"
 preserveAspectRatio="xMidYMid meet">
<metadata>
Created by potrace 1.14, written by Peter Selinger 2001-2017
</metadata>
<g transform="translate(0.000000,400.000000) scale(0.100000,-0.100000)"
fill="#000000" stroke="none">
<path d="M1973 3633 c-17 -26 -102 -169 -190 -318 -88 -148 -196 -330 -239
-403 -44 -73 -86 -145 -95 -160 -9 -15 -87 -146 -174 -292 -86 -146 -166 -280
-176 -297 -11 -18 -27 -48 -38 -65 -10 -18 -56 -96 -103 -173 -101 -170 -276
-463 -302 -508 -10 -17 -91 -153 -179 -302 -88 -148 -203 -342 -255 -430 -52
-88 -123 -207 -158 -265 l-62 -105 999 -3 c549 -1 1449 -1 1998 0 l999 3 -77
130 c-43 72 -137 231 -211 355 -73 124 -148 249 -166 277 -19 29 -34 55 -34
58 0 2 -19 35 -42 72 -22 38 -49 82 -58 98 -9 17 -72 122 -139 233 -66 112
-121 208 -121 213 0 5 -4 9 -10 9 -5 0 -10 4 -10 9 0 5 -67 121 -149 259 -82
137 -157 264 -168 282 -10 18 -22 40 -28 49 -5 9 -43 73 -84 141 -40 69 -82
137 -92 152 -10 15 -19 30 -19 33 0 3 -11 22 -24 43 -13 20 -73 120 -133 222
-60 102 -177 298 -258 435 -82 138 -154 260 -161 273 -11 22 -12 22 -41 -25z"/>
</g>
</svg>
