<?xml version="1.0" standalone="no"?>
<!DOCTYPE svg PUBLIC "-//W3C//DTD SVG 20010904//EN"
 "http://www.w3.org/TR/2001/REC-SVG-20010904/DTD/svg10.dtd">
<svg version="1.0" xmlns="http://www.w3.org/2000/svg"
 width="512.000000pt" height="512.000000pt" viewBox="0 0 512.000000 512.000000"
 preserveAspectRatio="xMidYMid meet">
<metadata>
Created by potrace 1.14, written by Peter Selinger 2001-2017
</metadata>
<g transform="translate(0.000000,512.000000) scale(0.100000,-0.100000)"
fill="#000000" stroke="none">
<path d="M2943 5105 c-23 -7 -62 -24 -85 -38 -24 -14 -645 -627 -1416 -1398
-1555 -1555 -1437 -1425 -1436 -1590 1 -141 20 -170 278 -429 279 -281 287
-284 463 -188 96 51 131 64 200 74 256 35 471 -95 565 -342 17 -46 22 -80 23
-159 0 -145 -14 -197 -80 -300 -18 -29 -36 -62 -40 -76 -11 -34 -8 -93 7 -129
15 -34 415 -440 466 -472 64 -39 124 -55 207 -53 150 4 38 -99 1573 1436 773
774 1384 1393 1399 1418 35 60 52 131 49 207 -6 136 29 96 -966 1090 -1000
1000 -945 952 -1091 959 -43 2 -92 -2 -116 -10z m957 -1210 l855 -855 -250
-250 -249 -250 -159 158 c-87 86 -159 158 -161 160 -5 4 -245 -242 -247 -253
-1 -5 69 -80 155 -165 l156 -155 -960 -960 -960 -960 -131 131 -131 131 36
104 c90 268 55 543 -102 788 -78 122 -239 256 -378 314 -205 86 -448 94 -641
21 -37 -14 -77 -28 -88 -30 -15 -4 -51 26 -150 126 l-130 130 960 960 960 961
161 -164 162 -164 126 123 c69 68 126 127 126 131 0 5 -72 80 -160 168 l-160
160 247 247 c136 137 250 248 253 248 3 0 390 -385 860 -855z"/>
<path d="M3042 3507 c-67 -67 -122 -127 -122 -132 0 -6 104 -113 230 -240
l231 -229 124 124 c69 69 125 128 125 131 0 6 -398 408 -447 451 -18 17 -23
13 -141 -105z"/>
</g>
</svg>
